<svg width="246" height="44" viewBox="0 0 246 44" fill="none" xmlns="http://www.w3.org/2000/svg">
<path d="M52.8063 0.0403154C54.9482 -0.046173 57.7326 0.033425 59.9464 0.033319L74.1377 0.0325783C73.2623 1.38799 71.6569 3.42672 70.6651 4.76676L63.9446 13.8441L41.6273 43.9999H20.229L42.008 14.5987C45.5494 9.81701 49.1919 4.73104 52.8063 0.0403154Z" fill="white"/>
<path d="M23.2687 0.0341573L44.6383 0.0332031L15.9695 38.7704C14.7847 40.2084 13.2418 42.4448 12.0805 44.0005H0V31.422C2.48001 28.3536 5.43201 24.1185 7.83485 20.8745L23.2687 0.0341573Z" fill="white"/>
<path d="M232.789 0.126478C232.875 0.123193 232.962 0.121073 233.048 0.119907C236.438 0.0677598 240.755 0.753732 243.207 3.19639C245.432 5.41287 245.945 8.20403 245.994 11.2056C246.047 14.5398 245.791 17.916 243.313 20.4359C240.854 22.9358 236.848 23.5792 233.456 23.6053C226.471 23.7096 220.779 21.6891 220.297 13.7179C219.719 4.14618 223.107 0.561252 232.789 0.126478ZM234.971 17.9662C238.939 17.2041 238.89 13.9112 238.793 10.6166C238.655 5.88252 235.316 5.43153 231.384 5.72109C230.181 6.04638 228.666 6.54877 228.148 7.71223C227.026 10.2289 226.739 15.9045 229.637 17.4163C231.112 18.1856 233.471 18.3052 234.971 17.9662Z" fill="white"/>
<path d="M143.567 0.601562H151.574C151.959 1.36798 153.508 3.48822 154.052 4.32661C156.118 7.51597 158.477 10.7231 160.48 13.9374V0.601562H167.06V22.8663L167.054 23.0043C166.757 23.2381 159.673 23.1341 158.684 23.1313L150.123 10.3077V23.1313H143.567V0.601562Z" fill="white"/>
<path d="M178.882 0.126818L179.046 0.120459C184.745 -0.0926887 190.844 0.95535 191.103 7.81889C189.456 7.80648 187.734 7.85725 186.091 7.84941C184.157 7.99091 184.89 6.9912 183.96 6.16416C182.509 4.87382 178.019 4.70318 176.576 6.06866C176.352 6.27958 176.11 6.79735 176.161 7.08967C176.429 8.60046 178.716 8.84403 179.948 8.96242C183.188 9.32194 187.188 9.18511 189.753 11.475C192.336 13.7801 192.368 18.4901 189.958 20.9187C187.729 23.1673 184.007 23.5474 180.976 23.6479C177.09 23.7179 171.885 23.045 169.931 19.2888C169.284 18.0461 169.22 17.0452 169.184 15.7008C170.346 15.6961 174.334 15.5709 175.508 15.8479C175.79 16.4077 175.895 17.0897 176.363 17.519C177.842 18.874 185.221 19.421 185.049 16.39C184.952 14.6831 180.349 14.6298 178.917 14.4898C177.915 14.3972 176.918 14.2518 175.93 14.0542C174.354 13.7229 172.993 13.2175 171.697 12.217C169.067 10.184 168.717 5.51443 170.829 3.01825C172.688 0.819679 176.143 0.37526 178.882 0.126818Z" fill="white"/>
<path d="M194.125 0.601562H200.911V9.39211H210.437V0.601562H217.233V22.7842L217.211 23.0075C216.933 23.2405 211.261 23.1346 210.437 23.1313V14.8624H200.911V23.1313H194.125V0.601562Z" fill="white"/>
<path d="M94.3271 0.601562H101.126V9.26524C102.014 8.46342 103.145 7.23817 103.994 6.36905C105.868 4.43376 107.756 2.5112 109.656 0.601562L118.457 0.601774C115.435 3.33496 112.178 6.68236 109.18 9.55131C110.877 12.14 113.276 15.4281 115.124 17.9532C116.319 19.6973 117.542 21.4224 118.793 23.1281L110.82 23.1313C109.342 21.1747 107.984 19.0453 106.537 17.0545C105.846 16.1029 105.117 15.0707 104.494 14.0827C103.713 14.996 102.054 16.516 101.126 17.4006V23.1313H94.3271V0.601562Z" fill="white"/>
<path d="M120.856 0.601562H140.542V6.06284H127.663V9.41596H138.272V14.4768H129.539H127.663V17.6713H140.542V23.1313H120.856V0.601562Z" fill="white"/>
<path d="M65.0918 23.2285C65.4578 23.4075 78.8471 41.8725 80.5316 44.0006H65.3018L49.7568 44.0005C53.8214 38.7097 57.6759 33.2126 61.6908 27.8807C62.8368 26.3587 64.006 24.7881 65.0918 23.2285Z" fill="white"/>
<path d="M94.793 28.4551H101.163C101.577 29.132 101.972 30.1702 102.327 30.9057C103.246 32.8096 104.088 35.0155 105.064 36.8762C106.35 34.0742 107.59 31.2487 108.896 28.4551H115.303V43.6056H110.853V39.2401L110.849 34.4628C109.58 36.9637 108.137 40.0154 107 42.5747L103.07 42.5721C102.762 41.6995 102.091 40.3879 101.671 39.5092C100.848 37.8026 100.037 36.0909 99.2361 34.374L99.2307 43.6056H94.793V28.4551Z" fill="white"/>
<path d="M133.161 28.4578C134.405 28.4575 135.706 28.4674 136.96 28.4522C142.257 28.3881 149.286 27.8143 149.496 35.0211C149.568 37.5585 149.577 39.635 147.691 41.6249C145.226 43.8365 141.535 43.6179 138.421 43.616L133.161 43.6061V28.4578ZM137.746 39.9227C139.653 39.9427 142.642 40.2621 144.05 39.0044C145.172 37.5932 145.299 34.0418 143.82 32.8781C142.508 31.8462 139.415 32.1533 137.746 32.1714V39.9227Z" fill="white"/>
<path d="M117.937 28.4551H131.179V32.1524L122.527 32.1528V34.3979H129.642V37.7813H123.767H122.527V39.9222H131.179V43.6052L117.937 43.6056V28.4551Z" fill="white"/>
<path d="M163.24 28.3984H167.882C170.019 33.0632 172.294 38.8224 174.274 43.6046H169.812C169.441 42.8488 169.335 42.0164 168.831 41.3837C168.662 41.171 168.413 41.2299 168.097 41.2177H162.304L161.335 43.6046H156.873C158.722 38.7508 161.218 33.2768 163.24 28.3984ZM163.579 38.0115H165.665H167.554C167.327 37.4304 165.783 33.3496 165.541 33.1212L163.579 38.0115Z" fill="white"/>
<path d="M151.535 28.4583L156.123 28.4551V43.6056H151.535V28.4583Z" fill="white"/>
<path d="M176.517 39.736C178.347 39.6441 180.347 40.1931 179.505 42.7599C179.299 43.3915 178.544 43.7205 177.919 43.9092C177.372 43.9561 176.787 43.9754 176.267 43.7793C175.704 43.5706 175.251 43.1442 175.012 42.5979C174.412 41.2025 175.234 40.2101 176.517 39.736Z" fill="white"/>
</svg>
