<svg width="1772" height="516" viewBox="0 0 1772 516" fill="none" xmlns="http://www.w3.org/2000/svg">
<path d="M669.156 271.518C672.69 273.692 812.677 491.328 827.636 514.331C777.142 513.079 721.861 514.196 670.989 514.195L511.391 514.129C545.145 459.315 583.761 401.6 619.132 347.489L651.841 296.798C656.656 289.43 663.791 277.84 669.156 271.518Z" fill="#11B1A7"/>
<path d="M1680.07 176.941C1680.3 176.852 1681.02 176.611 1681.24 176.598C1701.82 175.524 1723.85 176.713 1741.54 188.552C1768.85 206.837 1771.75 240.763 1770.88 270.609C1770.24 292.254 1769.59 311.94 1756.97 330.366C1743.94 349.386 1728.2 353.624 1707.18 357.474C1683.32 358.192 1660.85 358.359 1640.68 343.087C1626.68 332.149 1617.4 312.159 1616.15 294.444C1612.36 240.671 1613.6 184.808 1680.07 176.941ZM1698.61 314.86C1729.76 310.256 1726.93 284.363 1727.1 259.474C1727.3 230.636 1715.89 217.189 1686.81 219.308C1680.09 220.368 1670.48 223.335 1666.78 229.469C1655.55 248.053 1653.21 295.505 1672.28 309.886C1678.91 314.88 1690.8 316.056 1698.61 314.86Z" fill="#11B1A7"/>
<path d="M1151.56 176.619L1200.09 176.727C1206.91 188.005 1216.04 207.071 1222.27 219.187C1232.7 239.438 1244.43 261.018 1254.06 281.538C1252.48 250.165 1253.85 209.77 1253.74 177.332L1294.17 177.284C1292.44 232.23 1293.11 293.725 1292.92 349.122L1292.62 351.328C1289.73 353.571 1249.2 352.341 1242.03 352.194C1238.16 345.875 1231.38 330.801 1227.56 323.406C1215.1 299.656 1203.02 275.713 1191.31 251.585C1192.12 283.952 1191.19 319.204 1191.11 351.908C1178.6 351.313 1163.46 351.631 1150.76 351.589L1151.56 176.619Z" fill="#11B1A7"/>
<path d="M1358.9 175.162C1362.62 174.938 1366.33 174.769 1370.06 174.656C1411.5 173.662 1439.1 189.793 1439.88 234.687L1401.33 234.229C1399.48 227.007 1400.19 226.366 1394.32 220.138C1384.9 210.168 1347 210.977 1349.21 229.091C1351.06 244.186 1386.68 244.179 1400.89 246.406C1444.49 253.239 1453.91 304.002 1431.48 336.221C1422.41 349.325 1402.74 354.022 1386.18 355.788C1340.48 357.103 1308.03 347.531 1306.3 294.3L1344.76 294.27C1346.23 301.909 1346.96 306.191 1353.68 311.165C1362.55 317.468 1374.33 317.081 1384.71 316.06C1392.61 315.284 1403.7 309.23 1401.9 299.741C1399.77 288.522 1385.1 287.8 1375.99 286.639C1359.53 284.54 1341.78 283.024 1327.8 273.026C1304.78 257.212 1302.89 217.579 1317.58 195.75C1326.51 182.495 1344.06 177.568 1358.9 175.162Z" fill="#11B1A7"/>
<path d="M1458.08 178.311L1499.9 178.219C1499.45 201.066 1499.21 223.917 1499.16 246.768C1517.93 246.569 1537.28 246.876 1556.11 246.939C1557.51 229.435 1556.71 197.539 1556.82 179.005L1598.11 179.11C1598 237.549 1597.01 296.157 1597.36 354.578C1583.44 354.249 1569.53 354.1 1555.6 354.131C1556.08 333.34 1556.03 310.661 1555.8 289.873C1541.41 288.958 1513.27 289.157 1498.72 289.595C1499.13 310.869 1498.55 332.299 1499.05 353.776C1484.79 353.377 1471.07 353.783 1456.46 353.229C1457.74 338.052 1457.27 311.894 1457.44 295.83L1458.08 178.311Z" fill="#11B1A7"/>
<path d="M854.133 174.991C867.371 174.605 882.47 174.971 895.855 174.977C895.189 196.983 896.21 222.085 894.592 243.525C907.821 225.159 932.645 192.458 947.163 175.426C961.189 175.461 988.002 176.473 1001.05 175.281C981.92 198.213 962.885 221.874 944.023 245.072L983.823 318.158C989.819 328.971 995.668 339.864 1001.38 350.834L953.159 350.641C941.799 332.076 926.052 300.628 915.297 280.686C908.998 287.663 900.718 298.448 894.869 305.876C894.324 319.99 894.678 336.286 894.661 350.563C882.427 349.732 865.762 350.041 853.198 349.926C852.601 292.105 855.087 233.03 854.133 174.991Z" fill="#11B1A7"/>
<path d="M1014.41 175.92C1026.95 175.459 1043.19 176.061 1055.95 176.148L1134.14 176.498C1133.36 190.715 1133.93 204.885 1133.71 219.18C1109.28 219.164 1079.16 218.112 1055.5 219.015L1055.48 244.172C1071.83 244.206 1104.39 243.325 1119.85 244.633C1119.7 257.774 1119.63 270.916 1119.63 284.058C1098.76 283.914 1077.21 283.581 1056.32 283.944C1055.82 283.953 1055.54 284.504 1055.08 285.026L1055.01 308.441C1080.87 308.095 1106.96 308.97 1132.98 308.96C1132.64 323.004 1132.72 337.495 1132.64 351.578C1093.73 350.917 1052.4 350.857 1013.43 350.797C1013.82 316.842 1013.97 282.884 1013.88 248.927C1014.06 224.979 1014.76 199.727 1014.41 175.92Z" fill="#11B1A7"/>
<path d="M855.488 390.643C867.925 390.344 881.942 390.741 894.497 390.818C901.713 408.236 911.187 439.002 917.477 457.541C924.624 435.257 933.648 413.161 940.484 391.182L980.25 391.289C979.523 430.747 979.22 470.213 979.341 509.678C971.295 509.966 960.35 509.363 952.095 509.146C951.836 496.208 951.914 483.265 952.346 470.331C952.312 459.469 952.476 448.607 952.839 437.751C946.558 451.012 934.289 486.445 929.184 501.342C920.999 501.296 912.814 501.21 904.637 501.081C897.862 480.009 889.253 457.106 882.003 435.926C882.349 460.246 881.622 484.598 882.003 508.97L854.821 508.953L855.488 390.643Z" fill="#11B1A7"/>
<path d="M1086.9 392.263C1094.73 391.951 1107.98 392.631 1114.62 392.125C1170.24 387.875 1191.24 408.877 1185.72 464.593C1184.36 478.369 1182.01 486.927 1172.27 498.11C1155.2 515.058 1110.7 510.189 1086.77 509.966L1087.26 434.155C1087.32 422.576 1087.98 403.208 1086.9 392.263ZM1114.96 481.44C1125.46 481.712 1144.38 483.908 1151.93 475.717C1159.39 463.983 1161.85 433.219 1148.55 424.467C1141.09 419.564 1124.29 420.637 1115.21 420.872C1115.17 440.331 1115.62 462.185 1114.96 481.44Z" fill="#11B1A7"/>
<path d="M995.556 391.393L1043.77 391.513C1053.22 391.501 1067.47 391.042 1076.36 392.374C1075.96 401.875 1076.11 411.156 1076.21 420.652C1061.71 420.439 1037.01 419.599 1023.13 420.587L1023.11 437.344C1037.83 437.386 1051.67 438.073 1066.65 437.799C1066.6 446.7 1066.63 455.602 1066.75 464.502C1052.66 464.167 1038.57 464.034 1024.46 464.104L1023.94 464.362C1021.84 467.446 1022.9 476.935 1023.17 481.131L1075.36 481.332C1075.23 490.909 1075.23 500.486 1075.36 510.062C1048.92 509.527 1021.4 509.745 994.881 509.551L995.556 391.393Z" fill="#11B1A7"/>
<path d="M1269.25 393.09L1297.78 393.072C1310.28 432.635 1323.01 472.125 1335.97 511.541L1308.64 511.432C1305.8 505.073 1305.83 500.431 1302.84 494.703C1302 493.094 1299.15 493.306 1297.2 493.164C1285.89 493.046 1274.59 493.031 1263.28 493.119L1257.64 511.315C1249.32 511.458 1238.81 510.969 1230.27 510.835C1241.06 474.019 1257.04 430.161 1269.25 393.09ZM1271.26 467.943C1275.94 467.817 1280.41 467.702 1285.09 467.786L1295.08 467.714C1291.67 456.771 1287.11 440.152 1283.3 429.933L1271.26 467.943Z" fill="#11B1A7"/>
<path d="M1198.71 392.264L1227.08 392.282L1226.05 511.054C1216.84 510.849 1207.42 510.865 1198.18 510.746L1198.71 392.264Z" fill="#11B1A7"/>
<path d="M1352.37 480.662C1373.68 481.609 1373.72 510.318 1355.03 514.164C1333.39 512.643 1333.17 484.369 1352.37 480.662Z" fill="#11B1A7"/>
<path d="M542.524 0H762.219C738.453 37.9709 712.289 76.9771 687.767 114.622L520.217 372.015C489.736 418.834 457.437 466.983 427.929 514.196L207.867 514.22L443.978 150.808L504.433 57.9498C514.763 41.9134 531.481 14.66 542.524 0Z" fill="#11B1A7"/>
<path d="M239.343 0H458.906C448.937 17.1519 434.719 37.7635 423.729 54.6254L359.613 152.999L206.986 387.526C179.681 429.485 151.234 472.079 124.582 514.32L0 514.188V367.84C21.2073 336.386 43.4402 300.419 64.2225 268.241L171.96 102.841L215.805 35.6379C222.758 24.9833 231.942 9.85984 239.343 0Z" fill="#11B1A7"/>
</svg>
