<svg width="53" height="51" viewBox="0 0 53 51" fill="none" xmlns="http://www.w3.org/2000/svg">
<path d="M34.7614 0L48.8227 3.83783e-05C48.0878 1.1061 47.0937 2.40354 46.3028 3.49566L41.4199 10.2399L27.3929 29.6104C25.9826 29.6687 24.1499 29.613 22.7124 29.613H13.3042C13.9712 28.7476 14.6877 27.7095 15.3375 26.8121L19.2943 21.3477L29.3794 7.42248C31.1625 4.96025 32.9524 2.43898 34.7614 0Z" fill="#10B3A7"/>
<path d="M15.3535 0L29.415 0.00049543C28.7459 0.97253 27.9784 1.99258 27.2838 2.95208L23.2259 8.55716L10.5649 26.0491C9.96501 26.848 9.38861 27.691 8.79316 28.4959C8.5269 28.856 8.24999 29.2756 7.96854 29.614L0.0231762 29.6166C-0.0238074 26.8587 0.0134787 23.9303 0.0238151 21.1617C0.808591 20.0152 1.73819 18.7861 2.55769 17.654L7.48732 10.8473L12.6169 3.76432C13.509 2.53254 14.4361 1.20316 15.3535 0Z" fill="#10B3A7"/>
<path d="M42.8575 15.6074C43.0804 15.7719 45.0593 18.6055 45.3341 18.986L52.9999 29.6146L42.9684 29.6138L32.7451 29.6123C36.1403 25.0087 39.4972 20.2495 42.8575 15.6074Z" fill="#10B3A7"/>
<path d="M47.8952 35.4589C50.1922 35.3182 52.6477 35.8983 52.8702 38.6303C53.1273 41.7902 52.3854 43.4064 49.1146 43.7501C46.6477 43.8088 44.2204 43.4841 43.9757 40.4435C43.7212 37.282 44.6353 35.6963 47.8952 35.4589ZM48.5944 41.8055C50.3722 41.6995 50.4696 40.554 50.3831 39.0407C50.3087 37.7393 49.5175 37.4169 48.3846 37.4024C46.4752 37.508 46.3895 38.4866 46.479 40.1908C46.5481 41.4998 47.4615 41.8306 48.5944 41.8055Z" fill="#10B3A7"/>
<path d="M23.168 35.5929L25.4375 35.5918L25.4386 43.5607L25.4262 43.595C25.2086 43.6617 22.8854 43.6159 22.5386 43.6167C22.4046 43.4261 22.27 43.2162 22.1441 43.0195C21.2959 41.696 20.396 40.3931 19.5703 39.0559L19.5716 43.6114C18.8029 43.6056 18.0342 43.6091 17.2656 43.6213L17.261 35.5937L20.0599 35.5952C20.3967 36.0247 20.8477 36.7625 21.1636 37.243L23.1718 40.3096C23.1485 38.7575 23.1684 37.1493 23.168 35.5929Z" fill="#10B3A7"/>
<path d="M29.4721 35.4587C29.5853 35.453 29.6984 35.448 29.8115 35.4438C31.7788 35.3752 33.7815 35.8367 33.8337 38.1831C33.1177 38.1648 32.3329 38.1796 31.612 38.1804C31.4594 37.3843 30.8644 37.2879 30.1532 37.254C29.8401 37.2452 28.9993 37.2475 28.7933 37.5547C28.1404 38.5291 30.1059 38.5729 30.4712 38.6061C31.4082 38.6914 32.1848 38.7273 32.9869 39.1705C34.2325 39.8583 34.3832 41.7481 33.4827 42.766C32.7693 43.5598 31.4996 43.7164 30.4896 43.7667C30.3971 43.7713 30.3043 43.7736 30.2115 43.774C28.24 43.7835 26.2175 43.3033 26.2141 40.9315C26.9358 40.9444 27.6958 40.933 28.4208 40.9322C28.6043 41.8544 29.3289 41.9265 30.1299 41.9592C30.5787 41.9779 31.2316 41.9261 31.5631 41.5858C31.9371 41.2287 31.5191 40.7844 31.1399 40.7139C29.3323 40.3789 26.5295 40.7146 26.3145 38.1568C26.1442 36.1264 27.7604 35.5936 29.4721 35.4587Z" fill="#10B3A7"/>
<path d="M34.9001 35.5926L37.273 35.5918L37.2722 38.7163L40.575 38.7167V35.5926L42.9482 35.5918C42.9178 38.2083 42.9471 40.9072 42.9474 43.529C42.9441 43.5538 42.9279 43.5755 42.9166 43.598C42.4663 43.6563 41.1433 43.606 40.5761 43.6243C40.5708 42.6377 40.5708 41.6511 40.5753 40.6644L37.2692 40.6671L37.2722 43.6094C36.4814 43.6194 35.6936 43.5976 34.9009 43.6243C34.8456 41.0272 34.8933 38.2053 34.9001 35.5926Z" fill="#10B3A7"/>
<path d="M0.116815 35.5937L2.49565 35.5918C2.46035 36.5632 2.48802 37.7099 2.487 38.6946C2.71264 38.3966 3.12914 38.0014 3.40393 37.711C4.07482 36.9942 4.75728 36.2884 5.4511 35.5941L8.52251 35.5956C7.48842 36.6649 6.36702 37.7377 5.30673 38.7872L7.41362 41.8248C7.7781 42.3915 8.25534 43.0485 8.64335 43.6098L5.85978 43.6163C5.10861 42.6129 4.39029 41.4601 3.64678 40.4278C3.29422 40.8142 2.85915 41.23 2.48531 41.6034L2.49245 43.6098C1.70242 43.6194 0.909559 43.5957 0.119183 43.6255C0.0861065 42.7451 0.113319 41.6831 0.113169 40.7917L0.116815 35.5937Z" fill="#10B3A7"/>
<path d="M9.38257 35.5922L16.2475 35.5918L16.2421 37.5563C14.8051 37.5193 13.1958 37.5403 11.7531 37.5559L11.7547 38.7163L15.4711 38.7133L15.471 40.5135L12.4855 40.5139L11.7524 40.5185L11.7543 41.6541L16.2477 41.6526L16.2452 43.6102C14.0094 43.6453 11.5939 43.5405 9.38309 43.6251L9.38257 35.5922Z" fill="#10B3A7"/>
<path d="M5.15963 45.4804C5.90475 45.4857 6.64987 45.4846 7.39492 45.4766L7.39575 50.896C6.88039 50.8887 6.36496 50.8922 5.84976 50.9063L5.84897 49.3716L5.8498 47.6411C5.413 48.486 4.91674 49.6529 4.50753 50.5385L3.16911 50.5397C2.74915 49.7722 2.19726 48.4727 1.80921 47.6362L1.81188 50.891C1.29506 50.8891 0.778282 50.8941 0.261576 50.9059C0.219178 49.1571 0.257817 47.2414 0.257667 45.4792C0.993316 45.4922 1.76452 45.4815 2.50284 45.4808C2.95212 46.4807 3.3947 47.4841 3.83056 48.4902C4.28243 47.5055 4.71486 46.4739 5.15963 45.4804Z" fill="#10B3A7"/>
<path d="M13.6469 45.4782C14.2043 45.4881 14.9634 45.5003 15.4924 45.4809C17.4206 45.4092 19.3896 45.5811 19.3325 48.0509C19.313 48.8981 19.3318 49.5596 18.6807 50.2231C17.8234 50.9834 16.6065 50.8954 15.544 50.895C14.9136 50.8946 14.2831 50.8851 13.6529 50.9049C13.6011 49.185 13.6478 47.2225 13.6469 45.4782ZM15.2488 49.5768C15.9666 49.5848 16.8376 49.7029 17.3996 49.2654C17.8129 48.7586 17.8563 47.4736 17.3284 47.0529C16.8751 46.6916 15.8153 46.7953 15.2471 46.8021L15.2488 49.5768Z" fill="#10B3A7"/>
<path d="M8.36572 45.4788C9.86183 45.5078 11.471 45.4903 12.9709 45.4766L12.97 46.8027L9.95362 46.8031L9.95636 47.6198C10.7828 47.6247 11.6093 47.6217 12.4357 47.611L12.437 48.8259H10.3524L9.95317 48.8305L9.95621 49.5782L12.9705 49.577L12.9739 50.8952C11.4739 50.8937 9.85649 50.8655 8.36666 50.9055L8.36572 45.4788Z" fill="#10B3A7"/>
<path d="M24.1137 45.4831L25.7372 45.4805C26.0207 46.0963 26.3266 46.9004 26.5886 47.5395C27.0502 48.6538 27.5057 49.7707 27.956 50.8896L26.3811 50.9033C26.2826 50.656 26.2078 50.3039 26.0421 50.108C25.9831 50.0382 25.9038 50.0611 25.8008 50.0603C25.1287 50.0573 24.4569 50.0596 23.785 50.0676L23.4664 50.8953L21.8889 50.8938C22.3686 49.6191 22.9409 48.3558 23.4401 47.0856C23.6419 46.5723 23.8718 45.9747 24.1137 45.4831ZM24.241 48.9049L24.9269 48.9041L25.6091 48.903L24.9216 47.1683C24.7006 47.7323 24.4731 48.3508 24.241 48.9049Z" fill="#10B3A7"/>
<path d="M20.0554 45.4785C20.5765 45.4899 21.1236 45.48 21.6467 45.4789L21.6487 50.8922C21.1178 50.8884 20.587 50.893 20.0564 50.9052L20.0554 45.4785Z" fill="#10B3A7"/>
<path d="M28.6742 49.5118C29.3406 49.4516 30.0529 49.6494 29.762 50.5998C29.6992 50.8056 29.441 50.9291 29.241 50.9893C29.0542 51.0011 28.8204 51.0182 28.6441 50.9557C28.4321 50.8818 28.2619 50.7191 28.1762 50.5091C27.9897 50.0415 28.2322 49.6719 28.6742 49.5118Z" fill="#10B3A7"/>
</svg>
